<svg id="visual" viewBox="0 0 1500 1000" width="1500" height="1000" xmlns="http://www.w3.org/2000/svg" xmlns:xlink="http://www.w3.org/1999/xlink" version="1.1"><rect x="0" y="0" width="1500" height="1000" fill="#fff"></rect><path d="M0 150L35.7 145.8C71.3 141.7 142.7 133.3 214.2 128.3C285.7 123.3 357.3 121.7 428.8 125.3C500.3 129 571.7 138 643 138C714.3 138 785.7 129 857 128.5C928.3 128 999.7 136 1071.2 139.3C1142.7 142.7 1214.3 141.3 1285.8 144.3C1357.3 147.3 1428.7 154.7 1464.3 158.3L1500 162L1500 0L1464.3 0C1428.7 0 1357.3 0 1285.8 0C1214.3 0 1142.7 0 1071.2 0C999.7 0 928.3 0 857 0C785.7 0 714.3 0 643 0C571.7 0 500.3 0 428.8 0C357.3 0 285.7 0 214.2 0C142.7 0 71.3 0 35.7 0L0 0Z" fill="#ecffe9"></path><path d="M0 116L35.7 118.8C71.3 121.7 142.7 127.3 214.2 128.5C285.7 129.7 357.3 126.3 428.8 118C500.3 109.7 571.7 96.3 643 97.8C714.3 99.3 785.7 115.7 857 119.8C928.3 124 999.7 116 1071.2 107.5C1142.7 99 1214.3 90 1285.8 92.5C1357.3 95 1428.7 109 1464.3 116L1500 123L1500 0L1464.3 0C1428.7 0 1357.3 0 1285.8 0C1214.3 0 1142.7 0 1071.2 0C999.7 0 928.3 0 857 0C785.7 0 714.3 0 643 0C571.7 0 500.3 0 428.8 0C357.3 0 285.7 0 214.2 0C142.7 0 71.3 0 35.7 0L0 0Z" fill="#e9fce5"></path><path d="M0 96L35.7 94C71.3 92 142.7 88 214.2 82.8C285.7 77.7 357.3 71.3 428.8 74.3C500.3 77.3 571.7 89.7 643 94.7C714.3 99.7 785.7 97.3 857 95.8C928.3 94.3 999.7 93.7 1071.2 90.2C1142.7 86.7 1214.3 80.3 1285.8 80.2C1357.3 80 1428.7 86 1464.3 89L1500 92L1500 0L1464.3 0C1428.7 0 1357.3 0 1285.8 0C1214.3 0 1142.7 0 1071.2 0C999.7 0 928.3 0 857 0C785.7 0 714.3 0 643 0C571.7 0 500.3 0 428.8 0C357.3 0 285.7 0 214.2 0C142.7 0 71.3 0 35.7 0L0 0Z" fill="#e5fae2"></path><path d="M0 62L35.7 60C71.3 58 142.7 54 214.2 51C285.7 48 357.3 46 428.8 45.3C500.3 44.7 571.7 45.3 643 50.8C714.3 56.3 785.7 66.7 857 68.3C928.3 70 999.7 63 1071.2 60.3C1142.7 57.7 1214.3 59.3 1285.8 56.7C1357.3 54 1428.7 47 1464.3 43.5L1500 40L1500 0L1464.3 0C1428.7 0 1357.3 0 1285.8 0C1214.3 0 1142.7 0 1071.2 0C999.7 0 928.3 0 857 0C785.7 0 714.3 0 643 0C571.7 0 500.3 0 428.8 0C357.3 0 285.7 0 214.2 0C142.7 0 71.3 0 35.7 0L0 0Z" fill="#e2f8de"></path><path d="M0 49L35.7 43.5C71.3 38 142.7 27 214.2 26.3C285.7 25.7 357.3 35.3 428.8 40.2C500.3 45 571.7 45 643 41.8C714.3 38.7 785.7 32.3 857 27.7C928.3 23 999.7 20 1071.2 20C1142.7 20 1214.3 23 1285.8 26.8C1357.3 30.7 1428.7 35.3 1464.3 37.7L1500 40L1500 0L1464.3 0C1428.7 0 1357.3 0 1285.8 0C1214.3 0 1142.7 0 1071.2 0C999.7 0 928.3 0 857 0C785.7 0 714.3 0 643 0C571.7 0 500.3 0 428.8 0C357.3 0 285.7 0 214.2 0C142.7 0 71.3 0 35.7 0L0 0Z" fill="#def6db"></path></svg>